PathFileType	4	(X/Y/Z)	Walk5.trc
DataRate	CameraRate	NumFrames	NumMarkers	Units	OrigDataRate	OrigDataStartFrame	OrigNumFrames
200.000000	200.000000	4	59	mm	200.000000	620	826
Frame#	Times		RCAR		LFHD		RFHD		RWRU		LMT1		RACR1		LTH3		RASI		LTB1		RUA1		RFA1		LACR1		LLFC		LUA1		LTB4		LTB3		LToe		RTH2		STRN		LTH4		RBHD		LTH2		LElbow		RTH4		RLFC		CLAV		LASI		RTH3		LWRU		LFA1		RBack		C7		RTH1		RMT1		RMT5		LPSI		LCAR		RCAL		RToe		RLMAL		LTH1		LBHD		RPSI		RTB2		RTB4		RTB1		RElbow		RTB3		RMMAL		LTB2		LMT5		LWRR		RWRR		RElbowM		LLMAL		LMMAL		T10		LCAL		LElbowM
			X1	Y1	Z1	X2	Y2	Z2	X3	Y3	Z3	X4	Y4	Z4	X5	Y5	Z5	X6	Y6	Z6	X7	Y7	Z7	X8	Y8	Z8	X9	Y9	Z9	X10	Y10	Z10	X11	Y11	Z11	X12	Y12	Z12	X13	Y13	Z13	X14	Y14	Z14	X15	Y15	Z15	X16	Y16	Z16	X17	Y17	Z17	X18	Y18	Z18	X19	Y19	Z19	X20	Y20	Z20	X21	Y21	Z21	X22	Y22	Z22	X23	Y23	Z23	X24	Y24	Z24	X25	Y25	Z25	X26	Y26	Z26	X27	Y27	Z27	X28	Y28	Z28	X29	Y29	Z29	X30	Y30	Z30	X31	Y31	Z31	X32	Y32	Z32	X33	Y33	Z33	X34	Y34	Z34	X35	Y35	Z35	X36	Y36	Z36	X37	Y37	Z37	X38	Y38	Z38	X39	Y39	Z39	X40	Y40	Z40	X41	Y41	Z41	X42	Y42	Z42	X43	Y43	Z43	X44	Y44	Z44	X45	Y45	Z45	X46	Y46	Z46	X47	Y47	Z47	X48	Y48	Z48	X49	Y49	Z49	X50	Y50	Z50	X51	Y51	Z51	X52	Y52	Z52	X53	Y53	Z53	X54	Y54	Z54	X55	Y55	Z55	X56	Y56	Z56	X57	Y57	Z57	X58	Y58	Z58	X59	Y59	Z59

620	3.1	-159.11	740.24	323.33	13.374	1552.2	-22.605	16.194	1550.4	74.997	-193.54	798.35	341.1	-295.69	35.673	-53.936	-123.48	1345.2	198.5	-166.7	551.13	-168.84	-10.607	935.4	184.3	-250.78	329.59	-60.31	-169.89	1200.8	279.57	-164.45	903.39	317.34	-102.88	1343	-161.53	-218.34	489.6	-156.78	-86.811	1200.7	-243.85	-294.6	256.27	-69.003	-330.66	178.72	-76.342	-253.47	28.748	-54.03	30.48	637.4	188.29	29.032	1203.5	23.27	-134.54	627.43	-196.86	-154.23	1546.7	88.647	-84.162	616.01	-165.92	-103.64	1057.9	-294.82	-24.868	623.08	207.23	15.743	453.04	178.28	-39.106	1317.2	20.767	-29.767	947.98	-177.75	-8.1437	540.24	191.24	54.685	872.85	-323.82	6.5273	979.92	-295.57	-259.87	1282.4	117.08	-203.92	1389	26.704	-30.699	705.13	228.23	218.56	44.388	86.533	208.86	31.603	174.5	-264.59	955.11	-74.156	109.76	852.29	-309.97	32.989	24.902	128.08	258.71	49.391	91.867	82.862	64.262	171.87	-98.97	700.52	-223.7	-138.89	1537	-46.472	-268.31	945.66	57.517	81.66	277.5	166.47	95.557	272.11	106.12	93.959	358.67	98.891	-217.63	1037.4	307.94	106.5	188.14	112.39	100.31	74.251	86.571	-292.37	262.68	-131.06	-315.24	24.425	-141.15	80.266	889.62	-255.33	-151.77	798.54	278.58	-249.4	1027.7	221.44	-407.97	106.48	-138.37	-396.98	107.75	-53.844	-248.66	1057.4	3.6293	-473.23	86.844	-97.73	-135.38	1009.7	-203.25
621	3.105	-152.61	740.05	324.43	17.694	1552.8	-20.734	20.641	1551.1	76.866	-187.31	797.98	342.13	-295.43	35.674	-54.003	-118.68	1345.2	200.49	-161.13	551.39	-168.62	-5.4454	935.83	185.34	-246.51	329.81	-60.397	-164.63	1200.5	281.29	-158.5	903.12	318.54	-98.419	1343.8	-159.67	-212.73	489.84	-156.74	-83.802	1201.4	-242.33	-291.04	256.97	-69.223	-328.05	179.86	-76.621	-253.56	28.746	-54.098	35.229	638.18	189.06	33.787	1204.2	25.305	-129.16	627.83	-196.48	-149.76	1547.3	90.751	-78.774	616.51	-165.5	-100.7	1058.6	-293.12	-20.251	624.12	207.81	20.344	453.84	178.81	-34.525	1317.8	22.78	-24.625	948.89	-176.55	-3.7781	541.1	191.94	57.915	873.64	-322.05	9.7562	980.8	-293.96	-255.12	1282.5	119.13	-199.3	1389.5	28.893	-25.349	706.11	228.58	219.05	42.875	86.379	209.46	30.527	174.81	-259.54	955.55	-73.424	113.07	853.25	-308.36	33.222	25.338	128.24	259.39	47.223	91.588	83.635	64.316	172.02	-93.777	701.08	-223.21	-134.6	1537.6	-44.395	-263.22	946.25	58.248	84.905	277.49	166.51	98.125	271.93	106.04	97.403	358.48	98.838	-211.98	1036.9	309.31	108.25	187.85	112.25	100.93	74.097	86.604	-288.77	263.44	-131.29	-315.15	24.439	-141.06	83.752	890.77	-253.77	-145.51	798.33	279.65	-243.82	1027.3	222.86	-406.24	108.55	-138.7	-395.05	109.73	-54.187	-243.76	1058	4.5771	-471.6	90.105	-97.821	-131.86	1010.6	-201.22
622	3.11	-146.07	739.97	325.53	22.033	1553.5	-18.857	25.11	1551.8	78.742	-181.03	797.72	343.15	-295.15	35.673	-54.058	-113.87	1345.4	202.45	-155.44	551.71	-168.46	-0.29014	936.42	186.39	-242.04	330.06	-60.545	-159.35	1200.3	282.99	-152.52	902.96	319.73	-93.928	1344.7	-157.81	-206.96	490.12	-156.77	-80.782	1202.2	-240.8	-287.29	257.69	-69.495	-325.25	181.06	-76.938	-253.66	28.74	-54.162	39.889	639.01	189.85	38.539	1205	27.405	-123.69	628.33	-196.14	-145.27	1548	92.867	-73.285	617.11	-165.11	-97.807	1059.4	-291.39	-15.704	625.2	208.46	24.831	454.63	179.33	-29.938	1318.6	24.795	-19.49	949.92	-175.3	0.54698	542.01	192.67	60.981	874.42	-320.28	12.894	981.7	-292.36	-250.35	1282.8	121.15	-194.65	1390.1	31.061	-20.146	707.12	228.97	219.44	41.534	86.218	209.99	29.659	175.1	-254.46	956.07	-72.754	116.21	854.15	-306.76	33.425	25.715	128.39	259.96	45.281	91.32	84.311	64.385	172.14	-88.523	701.74	-222.73	-130.28	1538.2	-42.309	-258.15	946.94	58.92	87.964	277.47	166.58	100.55	271.79	105.99	100.72	358.3	98.855	-206.33	1036.6	310.68	109.88	187.59	112.1	101.44	73.981	86.617	-285	264.24	-131.58	-315.04	24.472	-140.97	87.087	891.89	-252.23	-139.2	798.24	280.71	-238.24	1027.1	224.26	-404.37	110.7	-139.02	-392.95	111.78	-54.533	-238.83	1058.5	5.525	-469.78	93.521	-97.887	-128.35	1011.5	-199.15
623	3.115	-139.49	740	326.62	26.389	1554.3	-16.974	29.601	1552.7	80.622	-174.71	797.57	344.18	-294.87	35.67	-54.097	-109.08	1345.6	204.4	-149.61	552.09	-168.36	4.8612	937.15	187.43	-237.37	330.33	-60.763	-154.05	1200.2	284.69	-146.51	902.92	320.92	-89.409	1345.7	-155.95	-201.02	490.43	-156.87	-77.741	1203.2	-239.26	-283.34	258.45	-69.823	-322.27	182.3	-77.293	-253.79	28.732	-54.219	44.466	639.89	190.65	43.287	1205.8	29.562	-118.12	628.91	-195.83	-140.75	1548.8	94.99	-67.695	617.8	-164.75	-94.963	1060.3	-289.63	-11.217	626.31	209.18	29.18	455.39	179.84	-25.348	1319.4	26.807	-14.37	951.06	-174	4.8265	542.94	193.4	63.89	875.2	-318.54	15.946	982.62	-290.75	-245.56	1283.1	123.12	-189.98	1390.8	33.204	-15.085	708.15	229.43	219.76	40.358	86.05	210.43	28.975	175.36	-249.34	956.69	-72.14	119.16	854.98	-305.17	33.599	26.036	128.53	260.44	43.556	91.062	84.893	64.462	172.22	-83.207	702.5	-222.25	-125.95	1538.9	-40.218	-253.08	947.72	59.536	90.818	277.44	166.67	102.83	271.65	105.99	103.9	358.13	98.948	-200.67	1036.4	312.04	111.38	187.35	111.97	101.86	73.897	86.611	-281.07	265.07	-131.91	-314.91	24.529	-140.87	90.276	892.96	-250.69	-132.85	798.27	281.77	-232.64	1027	225.65	-402.35	112.94	-139.33	-390.67	113.91	-54.879	-233.88	1059.2	6.4747	-467.76	97.094	-97.925	-124.86	1012.6	-197.04
